<?xml version="1.0" encoding="UTF-8" standalone="no"?>
<!DOCTYPE svg PUBLIC "-//W3C//DTD SVG 1.1//EN" "http://www.w3.org/Graphics/SVG/1.1/DTD/svg11.dtd">
<svg width="100%" height="100%" viewBox="0 0 691 150" version="1.1" xmlns="http://www.w3.org/2000/svg" xmlns:xlink="http://www.w3.org/1999/xlink" xml:space="preserve" xmlns:serif="http://www.serif.com/" style="fill-rule:evenodd;clip-rule:evenodd;stroke-linejoin:round;stroke-miterlimit:2;">
    <g transform="matrix(1,0,0,1,-2458.85,-1755.46)">
        <g transform="matrix(0.499817,0,0,0.499817,1550.75,812.715)">
            <g transform="matrix(378.886,0,0,378.886,2685.25,2185.92)">
                <path d="M0.457,-0.187C0.457,-0.096 0.381,-0.025 0.282,-0.025C0.202,-0.046 0.15,-0.129 0.152,-0.291L0.152,-0.319L0.475,-0.319C0.478,-0.332 0.479,-0.346 0.479,-0.369C0.479,-0.473 0.414,-0.571 0.27,-0.571C0.128,-0.571 0.039,-0.452 0.039,-0.276C0.039,-0.095 0.137,-0.001 0.271,-0.001C0.406,-0.001 0.479,-0.088 0.479,-0.187L0.457,-0.187ZM0.213,-0.539C0.228,-0.545 0.25,-0.549 0.27,-0.549C0.289,-0.549 0.311,-0.545 0.327,-0.539C0.358,-0.504 0.377,-0.443 0.378,-0.362L0.378,-0.341L0.154,-0.341C0.159,-0.437 0.178,-0.504 0.213,-0.539Z" style="fill:white;fill-rule:nonzero;"/>
            </g>
            <g transform="matrix(378.886,0,0,378.886,2380.96,2178.42)">
                <path d="M0.837,-0.761L0.609,-0.761L0.415,-0.266C0.408,-0.291 0.393,-0.333 0.385,-0.351L0.198,-0.761L-0.037,-0.761L-0.037,-0.739L0.064,-0.737C0.077,-0.727 0.089,-0.71 0.095,-0.694L0.095,-0.099C0.095,-0.064 0.087,-0.033 0.077,-0.015L-0.037,-0.013L-0.037,0.009L0.276,0.009L0.276,-0.013L0.162,-0.015C0.144,-0.028 0.13,-0.053 0.122,-0.084L0.122,-0.668L0.367,-0.12L0.389,-0.12L0.618,-0.706C0.616,-0.645 0.612,-0.554 0.612,-0.494L0.612,-0.015L0.48,-0.013L0.48,0.009L0.837,0.009L0.837,-0.013L0.723,-0.015L0.723,-0.737L0.837,-0.739L0.837,-0.761Z" style="fill:white;fill-rule:nonzero;"/>
            </g>
            <g transform="matrix(8.33534,0,0,8.33534,1808.53,1873.41)">
                <path d="M149.233,36.992L166.643,36.992L166.643,35.992L161.461,35.895L161.461,3.667C161.461,2.849 161.416,2.258 161.325,1.531L150.982,3.671L151.233,4.595L156.414,3.667L156.414,35.895L151.233,35.992C149.551,35.793 148.456,35.111 148.552,32.045L148.826,21.219C148.826,14.888 147.478,11.537 139.544,11.537C137.426,11.537 134.272,11.946 132.329,12.628L131.647,21.219L132.647,21.219C133.517,18.36 134.847,15.361 136.512,12.921C137.49,12.681 138.464,12.537 139.545,12.537C140.677,12.537 141.497,12.681 142.578,13.066C144.127,14.634 144.244,17.07 144.009,24.158C142.838,23.974 141.245,23.856 139.618,23.856C132.598,23.901 129.648,27.356 129.648,31.356C129.648,35.401 132.827,37.447 136.409,37.447C140.042,37.447 143.091,35.328 144.28,30.552C143.787,35.089 146.013,36.992 149.233,36.992ZM143.989,26.208C143.989,31.766 141.322,36.348 136.95,36.348C135.371,35.328 134.645,33.771 134.645,30.698C134.645,28.281 135.317,26.413 136.181,25.356C137.598,24.953 138.774,24.856 140.262,24.856C141.462,24.856 142.711,25.007 144.007,25.208L143.989,26.208Z" style="fill:white;fill-rule:nonzero;"/>
            </g>
            <g transform="matrix(8.33534,0,0,8.33534,1808.53,1873.41)">
                <path d="M1,2.001L21.995,2.001L21.995,3L23.994,3L23.994,4L25.994,4L25.994,5L26.994,5L26.994,6L27.993,6L27.993,7.999L28.993,7.999L28.993,12.998L27.993,12.998L27.993,14.998L26.994,14.998L26.994,15.997L24.994,15.997L24.994,16.997L22.995,16.997L22.995,17.997L21.995,17.997L21.995,18.997L24.994,18.997L24.994,19.996L27.993,19.996L27.993,20.996L29.993,20.996L29.993,22.996L31.993,22.996L31.993,31.994L30.993,31.994L30.993,33.993L28.993,33.993L28.993,34.993L26.994,34.993L26.994,35.993L24.994,35.993L24.994,36.992L1,36.992L1,35.993L5.999,35.993L5.999,34.993L6.999,34.993L6.999,4L5.999,4L5.999,3L1,3L1,2.001ZM12.997,3L18.996,3L18.996,4L20.995,4L20.995,5L21.995,5L21.995,6L22.995,6L22.995,7.999L23.994,7.999L23.994,12.998L22.995,12.998L22.995,14.998L21.995,14.998L21.995,15.997L20.995,15.997L20.995,16.997L18.996,16.997L18.996,17.997L14.997,17.997L14.997,18.997L19.995,18.997L19.995,19.996L22.995,19.996L22.995,20.996L24.994,20.996L24.994,22.996L26.994,22.996L26.994,31.994L25.994,31.994L25.994,33.993L23.994,33.993L23.994,34.993L20.995,34.993L20.995,35.993L12.997,35.993L12.997,34.993L11.997,34.993L11.997,4L12.997,4L12.997,3Z" style="fill:white;"/>
            </g>
            <g transform="matrix(8.33534,0,0,8.33534,1808.47,1873.34)">
                <path d="M41.998,12.007L43.998,12.007L43.998,35.001L44.997,35.001L44.997,36.001L48.996,36.001L48.996,37.001L34,37.001L34,36.001L37.999,36.001L37.999,35.001L38.999,35.001L38.999,17.006L37.999,17.006L37.999,16.006L36,16.006L36,17.006L34,17.006L34,16.006L36,16.006L36,15.006L37.999,15.006L37.999,14.006L39.999,14.006L39.999,13.007L41.998,13.007L41.998,12.007Z" style="fill:white;"/>
            </g>
            <g transform="matrix(8.33534,0,0,8.33534,1808.45,1873.41)">
                <path d="M40.001,2.001L43,2.001L43,3L44,3L44,6L43,6L43,7L40.001,7L40.001,6L39.001,6L39.001,3L40.001,3L40.001,2.001Z" style="fill:white;"/>
            </g>
            <g transform="matrix(8.33534,0,0,8.33534,1808.53,1873.41)">
                <path d="M55.987,4L56.987,4L56.987,11.998L64.985,11.998L64.985,12.998L56.987,12.998L56.987,32.993L57.986,32.993L57.986,34.993L58.986,34.993L58.986,35.993L61.985,35.993L61.985,34.993L63.985,34.993L63.985,33.993L64.985,33.993L64.985,31.994L65.984,31.994L65.984,28.994L66.984,28.994L66.984,31.994L65.984,31.994L65.984,33.993L64.985,33.993L64.985,34.993L63.985,34.993L63.985,35.993L61.985,35.993L61.985,36.992L56.987,36.992L56.987,35.993L54.987,35.993L54.987,34.993L52.987,34.993L52.987,32.993L51.988,32.993L51.988,12.998L47.989,12.998L47.989,11.998L51.988,11.998L51.988,10.999L53.987,10.999L53.987,8.999L54.987,8.999L54.987,7L55.987,7L55.987,4Z" style="fill:white;"/>
            </g>
        </g>
    </g>
</svg>
